<svg width="100" height="100" viewBox="0 0 100 100" fill="none" xmlns="http://www.w3.org/2000/svg">
<circle cx="50" cy="50" r="49" stroke="#798598" stroke-width="2"/>
<path d="M55.7159 24.7569C55.7159 27.9364 53.1384 30.5137 49.959 30.5137C46.7801 30.5137 44.2021 27.9363 44.2021 24.7569C44.2021 21.5779 46.7801 19 49.959 19C53.1386 19 55.7159 21.5779 55.7159 24.7569" stroke="#798598" stroke-width="2" stroke-miterlimit="10" stroke-linecap="round" stroke-linejoin="round"/>
<path d="M59.5198 45.6562C59.5198 40.3406 55.237 35.9893 50.0001 35.9893C44.7646 35.9893 40.4805 40.3406 40.4805 45.6562V52.0828H59.5198V45.6562Z" stroke="#798598" stroke-width="2" stroke-miterlimit="10" stroke-linecap="round" stroke-linejoin="round"/>
<path d="M34.6468 36.8245H24.9002V30.8359L14 41.7377L24.9002 52.6361V46.6507H34.6468V36.8245Z" stroke="#798598" stroke-width="2" stroke-miterlimit="10" stroke-linecap="round" stroke-linejoin="round"/>
<path d="M65.3545 36.8245H75.0995V30.8359L85.9997 41.7377L75.0995 52.6361V46.6507H65.3545V36.8245Z" stroke="#798598" stroke-width="2" stroke-miterlimit="10" stroke-linecap="round" stroke-linejoin="round"/>
<path d="M54.913 60.2031V69.9497H60.8999L49.9998 80.8504L39.0996 69.9497H45.0866V60.2031H54.913Z" stroke="#798598" stroke-width="2" stroke-miterlimit="10" stroke-linecap="round" stroke-linejoin="round"/>
</svg>
