<svg width="100" height="100" viewBox="0 0 100 100" fill="none" xmlns="http://www.w3.org/2000/svg">
<circle cx="50" cy="50" r="49" stroke="#798598" stroke-width="2"/>
<path d="M63.7504 69.0166C62.533 69.0195 61.3653 68.5368 60.5059 67.6752L49.087 56.2569C48.9422 56.1173 48.8592 55.9247 48.8574 55.7229C48.8557 55.5216 48.9353 55.3279 49.0777 55.1848C49.2202 55.0424 49.4139 54.9634 49.6158 54.9651C49.8171 54.9669 50.0097 55.0493 50.1498 55.1946L61.5682 66.6124C62.3472 67.3909 63.4822 67.6954 64.5456 67.41C65.6095 67.1251 66.4406 66.2941 66.7255 65.2306C67.0104 64.1667 66.7065 63.0317 65.9274 62.2532L54.5142 50.8315C54.2293 50.5368 54.2333 50.0679 54.5234 49.7779C54.8135 49.4878 55.2817 49.4838 55.577 49.7686L66.9942 61.187C67.8557 62.0462 68.3402 63.2135 68.3402 64.4309C68.3407 65.6477 67.8569 66.8148 66.9959 67.6754C66.1349 68.5358 64.9672 69.0185 63.7504 69.0167L63.7504 69.0166Z" fill="#798598" stroke="#798598" stroke-width="0.5" stroke-linejoin="round"/>
<path d="M58.3227 74.4439C57.1059 74.4457 55.9382 73.9613 55.0789 73.0991L43.6605 61.6837C43.5083 61.5453 43.4189 61.3504 43.4143 61.1451C43.4096 60.9392 43.4892 60.7402 43.6345 60.5949C43.7804 60.4496 43.9794 60.3706 44.1847 60.3758C44.3906 60.381 44.5849 60.4704 44.7233 60.6232L56.1417 72.0398C56.9214 72.8189 58.0575 73.1233 59.1221 72.8379C60.1866 72.5524 61.0182 71.7208 61.3036 70.6558C61.5885 69.5912 61.284 68.4552 60.5049 67.676L49.0859 56.2576C48.9412 56.1181 48.8581 55.9254 48.8564 55.7236C48.8547 55.5223 48.9343 55.3286 49.0767 55.1856C49.2191 55.0431 49.4129 54.9641 49.6147 54.9658C49.816 54.9676 50.0086 55.05 50.1488 55.1954L61.5671 66.6131C62.4292 67.473 62.9142 68.6401 62.9142 69.8576C62.9148 71.075 62.431 72.2427 61.57 73.1025C60.7084 73.9629 59.5401 74.4456 58.3227 74.4439L58.3227 74.4439Z" fill="#798598" stroke="#798598" stroke-width="0.5" stroke-linejoin="round"/>
<path d="M42.3156 70.6932C42.1103 70.6932 41.9142 70.609 41.7724 70.4608L41.277 69.9423C41.0013 69.6407 41.0169 69.1742 41.3122 68.8922C41.6074 68.6096 42.074 68.6148 42.3629 68.9037L42.8589 69.4222C43.067 69.6396 43.1253 69.9602 43.0065 70.237C42.8883 70.5138 42.6166 70.6932 42.3156 70.6932V70.6932Z" fill="#798598" stroke="#798598" stroke-width="0.5" stroke-linejoin="round"/>
<path d="M31.7939 59.7448C31.5892 59.7448 31.3931 59.6612 31.2512 59.5136L30.5379 58.7685V58.7691C30.3943 58.6261 30.3147 58.4317 30.3164 58.2293C30.3182 58.0269 30.4012 57.8337 30.5477 57.6936C30.6936 57.5534 30.8902 57.4779 31.0926 57.4848C31.2951 57.4912 31.4859 57.5794 31.6226 57.7287L32.3365 58.4727C32.5447 58.6901 32.6035 59.0113 32.4853 59.2881C32.3671 59.5649 32.0949 59.7448 31.7939 59.7448L31.7939 59.7448Z" fill="#798598" stroke="#798598" stroke-width="0.5" stroke-linejoin="round"/>
<path d="M69.1773 63.5926C67.9582 63.5891 66.7892 63.1053 65.9254 62.2455L54.514 50.8364C54.2291 50.5417 54.2331 50.0729 54.5232 49.7828C54.8133 49.4927 55.2815 49.4887 55.5768 49.7736L66.99 61.1826C67.5719 61.761 68.359 62.0869 69.1797 62.0897C70.2575 62.099 71.2604 61.539 71.8192 60.6175C72.1709 59.9779 72.299 59.2392 72.1836 58.5183C72.0677 57.7975 71.7148 57.1366 71.1802 56.639L56.017 41.495C55.6601 41.1374 55.0811 41.1357 54.7224 41.491L50.531 45.6592C48.8793 47.3171 46.6332 48.2457 44.293 48.2375C43.5012 48.2439 42.7262 48.0103 42.0704 47.568C41.4142 47.1251 40.9072 46.4942 40.6166 45.7578C40.2948 44.9885 40.2077 44.1413 40.3669 43.323C40.5261 42.5047 40.924 41.7521 41.511 41.1605L48.3989 34.2536L48.3995 34.253C47.3147 33.5783 46.1146 33.1095 44.8593 32.8702C42.488 32.4942 40.2666 31.4705 38.4397 29.9124L38.3486 29.8328L23.1087 45.0963L23.4039 45.3968H23.4045C24.7787 46.8137 25.7632 48.5633 26.2603 50.474L26.4702 51.2686V51.2681C26.6455 51.9278 26.8894 52.5668 27.1974 53.1758C27.3831 53.5471 27.2326 53.9987 26.8618 54.1844C26.4904 54.3701 26.0388 54.2195 25.8531 53.8482C25.4979 53.1463 25.2176 52.4093 25.0164 51.6492L24.8065 50.8557H24.807C24.3745 49.196 23.5199 47.6765 22.3267 46.4446L21.5147 45.6113C21.2304 45.3166 21.2339 44.8489 21.5222 44.5589L37.7867 28.2722C38.067 27.992 38.5162 27.977 38.8143 28.2382L39.4389 28.7866V28.7872C41.0628 30.1632 43.034 31.0652 45.1372 31.3938C46.9093 31.7323 48.5823 32.467 50.0308 33.5426C50.2211 33.6827 50.3347 33.9041 50.337 34.1406C50.3393 34.3776 50.2298 34.6013 50.0418 34.745C49.9979 34.7813 49.957 34.8205 49.9184 34.862L42.5771 42.2275C42.2006 42.6098 41.9451 43.0948 41.8436 43.6219C41.7427 44.149 41.7992 44.6939 42.0074 45.1887C42.1775 45.6437 42.482 46.0358 42.881 46.3126C43.2795 46.5895 43.7536 46.7382 44.2391 46.7394C46.2004 46.7573 48.0867 45.9862 49.4737 44.5993L53.6615 40.4339V40.4345C54.1113 39.9795 54.7249 39.7246 55.3644 39.7281H55.3702C56.0109 39.7281 56.6256 39.9812 57.0801 40.4328L72.2417 55.5753C73.0145 56.3134 73.5185 57.2885 73.6731 58.3463C73.8276 59.4034 73.6235 60.4824 73.0941 61.4108C72.2567 62.7695 70.7741 63.5959 69.1779 63.5929L69.1773 63.5926Z" fill="#798598" stroke="#798598" stroke-width="0.5" stroke-linejoin="round"/>
<path d="M37.0462 65.215C36.8421 65.215 36.6466 65.1319 36.5053 64.9855L35.9038 64.3615C35.6155 64.0622 35.6247 63.5864 35.9234 63.2981C36.2227 63.0103 36.6985 63.019 36.9868 63.3183L37.5883 63.9422C37.7977 64.1591 37.8565 64.4803 37.7383 64.7582C37.6206 65.0356 37.3478 65.2156 37.0462 65.215L37.0462 65.215Z" fill="#798598" stroke="#798598" stroke-width="0.5" stroke-linejoin="round"/>
<path d="M52.8901 79.8794C51.671 79.8799 50.5032 79.3926 49.6456 78.5265L46.6624 75.549C46.5171 75.4089 46.4341 75.2169 46.4323 75.015C46.43 74.8138 46.509 74.6194 46.6515 74.477C46.7939 74.334 46.9877 74.2544 47.1895 74.2561C47.3908 74.2573 47.5834 74.3397 47.7235 74.4845L50.7073 77.4607C51.2828 78.0443 52.0677 78.3742 52.8872 78.3765C53.8065 78.3707 54.6772 77.9619 55.2689 77.2577C55.7568 76.6257 55.9921 75.8339 55.9287 75.0381C55.8658 74.2417 55.5088 73.4971 54.9276 72.9494L43.6632 61.6817C43.4008 61.3835 43.4152 60.9331 43.6966 60.6528C43.978 60.3726 44.4284 60.3593 44.7254 60.6229L55.9914 71.8889H55.992C56.8386 72.7037 57.3513 73.8051 57.4303 74.9776C57.5093 76.1506 57.1489 77.3109 56.4193 78.2318C55.5416 79.2727 54.2509 79.8748 52.8901 79.8794L52.8901 79.8794Z" fill="#798598" stroke="#798598" stroke-width="0.5" stroke-linejoin="round"/>
<path d="M20.3863 46.5344H20.3817C19.5599 46.5355 18.7722 46.2068 18.195 45.6215L14.777 42.1815C14.1853 41.5841 13.8537 40.7767 13.8555 39.9353C13.8566 39.0945 14.1905 38.2884 14.7845 37.6927L30.956 21.5212C31.5511 20.9226 32.3608 20.587 33.2044 20.5899C34.0487 20.5887 34.8583 20.9249 35.4534 21.5241L38.8662 24.945C39.4429 25.5251 39.7664 26.3094 39.7664 27.1271C39.7664 27.9454 39.4429 28.7296 38.8662 29.3098L22.5722 45.6275C21.9943 46.2093 21.2072 46.5357 20.3871 46.534L20.3863 46.5344ZM33.2036 22.0941C32.759 22.0924 32.3317 22.2694 32.0179 22.5849L15.8465 38.7534C15.1948 39.4073 15.1937 40.4644 15.843 41.1206L19.2639 44.5634C19.5609 44.8633 19.9646 45.0317 20.3861 45.0317C20.8083 45.0294 21.2125 44.8627 21.5135 44.5663L37.8076 28.2487C38.424 27.6287 38.424 26.6271 37.8076 26.0076L34.3902 22.5861C34.0765 22.2707 33.6492 22.0936 33.2045 22.0942L33.2036 22.0941Z" fill="#798598" stroke="#798598" stroke-width="0.5" stroke-linejoin="round"/>
<path d="M79.4708 45.8163C78.6502 45.8175 77.863 45.4905 77.2851 44.908L60.9897 28.5889C60.413 28.0094 60.0889 27.2251 60.0889 26.4074C60.0889 25.5897 60.413 24.8049 60.9897 24.2253L64.4024 20.8044C64.997 20.2046 65.8072 19.8678 66.652 19.8701C67.4957 19.8673 68.3048 20.2029 68.9 20.8015L85.0715 36.973C85.6649 37.5687 85.9988 38.3749 86 39.2156C86.0017 40.057 85.6707 40.8644 85.079 41.4618L81.661 44.9018C81.0838 45.4871 80.2955 45.8158 79.4737 45.8141L79.4708 45.8163ZM66.6535 21.3731C66.2083 21.3725 65.781 21.5495 65.4673 21.8656L62.0545 25.2865C61.438 25.9064 61.438 26.9074 62.0545 27.5269L78.3485 43.846C78.6495 44.1424 79.0538 44.3091 79.4759 44.3114C79.8975 44.3114 80.3017 44.143 80.5981 43.8431L84.0161 40.4032C84.6654 39.7469 84.6637 38.6899 84.0126 38.0359L67.8382 21.8644C67.5245 21.549 67.0977 21.3725 66.6531 21.3737L66.6535 21.3731Z" fill="#798598" stroke="#798598" stroke-width="0.5" stroke-linejoin="round"/>
<path d="M71.3674 56.514C71.1684 56.514 70.977 56.4344 70.8363 56.2937L56.0156 41.4907C55.6563 41.1343 55.0773 41.1343 54.7186 41.4907L50.529 45.6584C48.8773 47.3162 46.6313 48.2448 44.2904 48.2367H44.2155C43.4352 48.2327 42.6735 47.9939 42.0304 47.5516C41.3868 47.1093 40.8914 46.4842 40.6077 45.7564C40.2865 44.9866 40.2006 44.1383 40.3609 43.3194C40.5218 42.5005 40.9214 41.7478 41.5096 41.1563L48.8001 33.8474C50.5786 32.0562 52.8911 30.8924 55.3893 30.5314C57.5496 30.1918 59.546 29.1751 61.0915 27.6278C61.2363 27.4906 61.426 27.4104 61.6255 27.4023C61.8257 27.4023 62.0171 27.4819 62.1578 27.6232L78.4445 43.9468C78.5869 44.0898 78.6659 44.2841 78.6636 44.4859C78.6613 44.6878 78.5782 44.8804 78.4323 45.02L78.0339 45.4017V45.4023C76.7323 46.6485 75.8027 48.2315 75.3477 49.9755L75.1222 50.8509C74.5213 52.9074 73.4124 54.7798 71.8974 56.2947C71.7567 56.4343 71.5658 56.5127 71.3674 56.5127L71.3674 56.514ZM55.3657 39.721C56.0075 39.7198 56.6229 39.9741 57.0767 40.4274L71.3473 54.6847C72.4171 53.4633 73.2078 52.0234 73.6644 50.4651L73.8898 49.5995C74.3962 47.6573 75.414 45.8863 76.8367 44.4705L61.6101 29.207C59.9193 30.6942 57.8403 31.6706 55.6155 32.0207C53.4362 32.335 51.4184 33.3494 49.866 34.9116L42.5756 42.2227C42.1984 42.605 41.9435 43.0906 41.842 43.6177C41.7405 44.1448 41.7976 44.6903 42.0064 45.1857C42.1759 45.6407 42.481 46.0328 42.8795 46.3102C43.2786 46.587 43.7526 46.7358 44.2382 46.737C46.1983 46.7548 48.0841 45.9844 49.4699 44.5987L53.6583 40.4281C54.1116 39.9754 54.7258 39.7211 55.3658 39.7217L55.3657 39.721Z" fill="#798598" stroke="#798598" stroke-width="0.5" stroke-linejoin="round"/>
<path d="M25.6303 63.5848C24.2993 63.5865 23.0329 63.0087 22.161 62.0029C21.4072 61.0774 21.0301 59.9015 21.1051 58.71C21.18 57.518 21.7019 56.3987 22.5664 55.5752L24.1205 54.0136C24.7352 53.4012 25.5103 52.9744 26.3564 52.7818C27.6597 52.4888 29.0252 52.7778 30.0985 53.5724C31.1717 54.3677 31.8465 55.5897 31.9463 56.9219C32.046 58.2534 31.5616 59.5631 30.6187 60.5089L28.872 62.2562C28.0116 63.1132 26.845 63.5918 25.6304 63.5849L25.6303 63.5848ZM27.3673 54.1721C27.1395 54.1721 26.9129 54.1975 26.6909 54.2471C26.1223 54.3769 25.6015 54.6629 25.188 55.0741L23.6303 56.6387C23.034 57.1934 22.6684 57.9518 22.6067 58.7638C22.545 59.5758 22.7913 60.3808 23.297 61.0192C23.8599 61.6656 24.6655 62.0503 25.5224 62.0814C26.3794 62.1126 27.211 61.7873 27.8198 61.1835L28.0113 60.9996L29.5545 59.4489C29.9391 59.0654 30.2148 58.5861 30.3526 58.0602C30.5948 57.1335 30.3947 56.1462 29.8105 55.3868C29.2269 54.6273 28.3245 54.1803 27.3665 54.1763L27.3673 54.1721Z" fill="#798598" stroke="#798598" stroke-width="0.5" stroke-linejoin="round"/>
<path d="M31.0648 69.0197C29.7338 69.022 28.468 68.4459 27.5955 67.4414C26.8395 66.5164 26.4617 65.3394 26.5367 64.1474C26.6122 62.9548 27.1359 61.8349 28.0021 61.0126L29.5551 59.4522C30.1191 58.883 30.8261 58.4753 31.6011 58.2717C32.664 57.9828 33.7948 58.0866 34.7867 58.5641C35.7786 59.0416 36.5652 59.861 37.0018 60.8714C37.4383 61.8823 37.4954 63.0166 37.1632 64.0663C36.9557 64.756 36.5837 65.3846 36.0791 65.8978L36.0601 65.9157H36.0606C36.0347 65.9433 36.0064 65.9681 35.9764 65.9912L34.2931 67.682H34.2926C33.4402 68.5436 32.2771 69.0257 31.0649 69.0199L31.0648 69.0197ZM32.8012 59.61H32.8007C31.9841 59.6134 31.2015 59.9376 30.6213 60.5119L29.0672 62.0747V62.0742C28.4773 62.633 28.1169 63.3902 28.0552 64.1998C27.9934 65.0093 28.2351 65.8134 28.7333 66.4545C29.2916 67.1004 30.0926 67.4851 30.9454 67.5168C31.7983 67.5485 32.6259 67.2244 33.2308 66.6223L34.9684 64.8773V64.8768C34.9891 64.8566 35.0111 64.837 35.0335 64.8191C35.3553 64.4829 35.5918 64.0752 35.7244 63.6294L35.729 63.6144C36.0266 62.6802 35.8594 61.6595 35.2804 60.8688C34.7008 60.0776 33.7787 59.6104 32.7978 59.6122L32.8012 59.61Z" fill="#798598" stroke="#798598" stroke-width="0.5" stroke-linejoin="round"/>
<path d="M33.9125 67.7486C33.6109 67.7475 33.3393 67.5652 33.2228 67.2867C33.1069 67.0082 33.1686 66.6869 33.3797 66.4713L34.9633 64.8797C35.1472 64.7124 35.3993 64.6415 35.6432 64.6876C35.8871 64.7338 36.0953 64.8918 36.206 65.1144C36.322 65.3952 36.2574 65.7181 36.0428 65.9333L34.4419 67.5342C34.3006 67.6732 34.1103 67.7504 33.9125 67.7487L33.9125 67.7486Z" fill="#798598" stroke="#798598" stroke-width="0.5" stroke-linejoin="round"/>
<path d="M36.482 74.4451C35.1274 74.4456 33.8413 73.8476 32.9694 72.8102C32.237 71.8909 31.8737 70.7324 31.9493 69.5594C32.0248 68.3864 32.5346 67.2844 33.3788 66.4666L34.9716 64.8721C34.9895 64.8525 35.0085 64.834 35.027 64.8167V64.8161C35.531 64.3185 36.1487 63.9505 36.8263 63.7447C37.6262 63.4857 38.4814 63.4534 39.298 63.6512C40.1145 63.8485 40.8608 64.2689 41.4531 64.8646C42.3106 65.7267 42.7927 66.8922 42.795 68.1079C42.7973 69.3241 42.3192 70.4914 41.4652 71.3564L39.7271 73.098C38.869 73.9624 37.7006 74.4474 36.4822 74.4451L36.482 74.4451ZM36.0599 65.9118L34.4434 67.5283C33.8633 68.0778 33.5092 68.8235 33.4487 69.6205C33.3881 70.4174 33.6263 71.2081 34.1165 71.8389C34.6724 72.5033 35.482 72.9029 36.347 72.9398C37.212 72.9773 38.0535 72.6486 38.6641 72.0344L40.4005 70.298H40.3999C40.716 69.9785 40.9582 69.5939 41.1104 69.1711V69.1625C41.3094 68.6118 41.348 68.0155 41.2217 67.4433C41.0954 66.8713 40.8094 66.3465 40.3965 65.9307C39.9968 65.5288 39.4934 65.2456 38.9421 65.113C38.3913 64.9803 37.8141 65.0028 37.2749 65.1793C36.821 65.316 36.4081 65.5628 36.0725 65.8978L36.0599 65.9118Z" fill="#798598" stroke="#798598" stroke-width="0.5" stroke-linejoin="round"/>
<path d="M33.9125 67.7486C33.6109 67.7475 33.3393 67.5652 33.2228 67.2867C33.1069 67.0082 33.1686 66.6869 33.3797 66.4713L34.9633 64.8797C35.1472 64.7124 35.3993 64.6415 35.6432 64.6876C35.8871 64.7338 36.0953 64.8918 36.206 65.1144C36.322 65.3952 36.2574 65.7181 36.0428 65.9333L34.4419 67.5342C34.3006 67.6732 34.1103 67.7504 33.9125 67.7487L33.9125 67.7486Z" fill="#798598" stroke="#798598" stroke-width="0.5" stroke-linejoin="round"/>
<path d="M41.9093 79.8796C40.5552 79.8756 39.271 79.2758 38.3979 78.2402C37.6649 77.3169 37.3022 76.1531 37.3806 74.9768C37.4591 73.8005 37.9729 72.6954 38.8223 71.8777L40.4007 70.2994H40.4001C40.8683 69.8248 41.4369 69.4609 42.0643 69.2354C43.1871 68.8266 44.4252 68.8709 45.5158 69.36C46.6063 69.8484 47.4638 70.7423 47.9067 71.8524C48.349 72.9625 48.3421 74.2012 47.8865 75.3063C47.6547 75.8604 47.3161 76.3639 46.89 76.7883L45.1456 78.5321V78.5316C44.2886 79.3925 43.1243 79.8775 41.9092 79.8798L41.9093 79.8796ZM43.6382 70.4584V70.459C43.2755 70.459 42.9156 70.523 42.5754 70.6487C42.1555 70.7998 41.7755 71.0437 41.4629 71.3621L39.8846 72.9404C39.301 73.4911 38.9429 74.2385 38.88 75.0384C38.8172 75.8382 39.0536 76.6329 39.5444 77.2679C40.0974 77.9345 40.9059 78.3359 41.7715 78.374C42.6366 78.4114 43.4774 78.0821 44.0864 77.4663L45.8268 75.7298C46.114 75.4444 46.3424 75.1059 46.4986 74.7322C46.7345 74.1699 46.7974 73.5494 46.678 72.9514C46.5586 72.3534 46.2628 71.8044 45.8291 71.3759C45.2501 70.7906 44.4618 70.4602 43.6383 70.459L43.6382 70.4584Z" fill="#798598" stroke="#798598" stroke-width="0.5" stroke-linejoin="round"/>
</svg>
