<svg width="100" height="100" viewBox="0 0 100 100" fill="none" xmlns="http://www.w3.org/2000/svg">
<circle cx="50" cy="50" r="49" stroke="#798598" stroke-width="2"/>
<path d="M73.205 28.6094C72.7012 26.371 70.7046 24.6904 68.3158 24.6904C65.9289 24.6904 63.9348 26.3684 63.4285 28.6039H61.2417C60.736 26.3678 58.7407 24.6904 56.3544 24.6904C53.9675 24.6904 51.9735 26.3684 51.4678 28.6039H49.281C48.7753 26.3678 46.78 24.6904 44.3937 24.6904C42.0068 24.6904 40.0127 26.3684 39.5064 28.6039H37.3196C36.8139 26.3678 34.8186 24.6904 32.4323 24.6904C30.0435 24.6904 28.0475 26.3708 27.5437 28.6094C24.8949 28.6394 22.748 30.7981 22.748 33.4545V70.8105C22.748 73.4849 24.9236 75.6605 27.598 75.6605H73.1445C75.822 75.6605 78.0001 73.4823 78.0001 70.8049V33.4537C78.0001 30.7979 75.8532 28.6393 73.205 28.6093V28.6094ZM68.3158 26.9003C69.4725 26.9003 70.4665 27.603 70.8966 28.6039H65.7356C66.1658 27.6031 67.1598 26.9003 68.3158 26.9003ZM56.3543 26.9003C57.5109 26.9003 58.5049 27.603 58.9351 28.6039H53.7734C54.2043 27.6031 55.1982 26.9003 56.3543 26.9003ZM44.3934 26.9003C45.5501 26.9003 46.544 27.603 46.9742 28.6039H41.8125C42.2428 27.6031 43.2367 26.9003 44.3934 26.9003ZM32.4318 26.9003C33.5885 26.9003 34.5825 27.603 35.0127 28.6039H29.851C30.2812 27.6031 31.2758 26.9003 32.4318 26.9003ZM27.5975 30.8137H35.0127C34.5825 31.8145 33.5885 32.5179 32.4318 32.5179C31.8214 32.5179 31.3269 33.0124 31.3269 33.6229C31.3269 34.2333 31.8214 34.7278 32.4318 34.7278C34.8188 34.7278 36.8135 33.0498 37.3192 30.8137H46.9741C46.5438 31.8145 45.5499 32.5179 44.3932 32.5179C43.7828 32.5179 43.2883 33.0124 43.2883 33.6228C43.2883 34.2333 43.7834 34.7277 44.3932 34.7277C46.7801 34.7277 48.7748 33.0497 49.2805 30.8137H58.9354C58.5052 31.8145 57.5113 32.5179 56.3546 32.5179C55.7441 32.5179 55.2497 33.0123 55.2497 33.6228C55.2497 34.2332 55.7441 34.7277 56.3546 34.7277C58.7415 34.7277 60.7362 33.0497 61.2419 30.8136H70.8968C70.4666 31.8144 69.4726 32.5178 68.316 32.5178C67.7055 32.5178 67.211 33.0123 67.211 33.6228C67.211 34.2332 67.7055 34.7277 68.316 34.7277C70.7009 34.7277 72.6939 33.0522 73.202 30.8187C74.633 30.8468 75.7904 32.0153 75.7904 33.4539V37.4439H24.957V33.4539C24.957 31.9985 26.1417 30.8138 27.5971 30.8138L27.5975 30.8137ZM73.1441 73.4502H27.5975C26.1416 73.4502 24.9575 72.2661 24.9575 70.8108V39.6547H75.7892V70.8044C75.7899 72.2635 74.6033 73.4501 73.1442 73.4501L73.1441 73.4502Z" fill="#798598"/>
<path d="M50.3733 42.2578C42.4917 42.2578 36.0791 48.6704 36.0791 56.552C36.0791 64.4336 42.4917 70.8461 50.3733 70.8461C58.2555 70.8461 64.6674 64.4336 64.6674 56.552C64.6674 48.6704 58.2555 42.2578 50.3733 42.2578ZM50.3733 68.6363C43.7101 68.6363 38.2896 63.2158 38.2896 56.5526C38.2896 49.8894 43.7101 44.4683 50.3733 44.4683C57.0364 44.4683 62.4575 49.8894 62.4575 56.5526C62.4575 63.2151 57.0364 68.6363 50.3733 68.6363Z" fill="#798598"/>
<path d="M50.3733 47.5508C49.7628 47.5508 49.2683 48.0453 49.2683 48.6557V56.0947L44.6185 60.7445C44.187 61.1759 44.187 61.8756 44.6185 62.3071C44.8343 62.5228 45.1174 62.6307 45.3998 62.6307C45.6823 62.6307 45.9654 62.5228 46.1811 62.3071L51.1551 57.3331C51.3621 57.1261 51.4787 56.8448 51.4787 56.5518V48.6552C51.4781 48.0453 50.9836 47.5509 50.3732 47.5509L50.3733 47.5508Z" fill="#798598"/>
</svg>
