<svg width="100" height="100" viewBox="0 0 100 100" fill="none" xmlns="http://www.w3.org/2000/svg">
<circle cx="50" cy="50" r="49" stroke="#798598" stroke-width="2"/>
<path d="M51.4762 79.0182L49.5278 78.3975L47 86.3368H51.4733L49.888 91.3872L51.8394 92.0001L54.2601 84.2913H49.7981L51.4762 79.0182Z" fill="#798598"/>
<path d="M85.4917 72.9634C84.6919 68.8581 81.5634 65.5499 77.5124 64.519L68.4281 61.1686L61.3543 57.6164L60.4454 50.4634L60.2428 50.4891C61.6318 48.5814 62.7028 46.2912 63.3207 43.742C66.1202 43.7028 68.3875 41.3184 68.3875 38.3855C68.3875 36.517 67.4394 34.8203 65.9768 33.855C66.2301 33.5725 66.4434 33.2743 66.5747 32.9432H70.0763V30.8978H66.763C66.5982 22.539 61.4307 15.6128 53.9608 13.6245V12H46.0657V13.6459C38.516 15.6736 33.4255 22.5512 33.2628 30.8978H29.9495V32.9433H33.4147C33.5781 33.3314 33.8521 33.6781 34.1888 33.9985C32.8511 34.9844 32.0013 36.6112 32.0013 38.3861C32.0013 41.3349 34.2922 43.7326 37.1117 43.747C37.7274 46.2854 38.7933 48.5672 40.1739 50.4692L40.1318 50.4635L39.2321 57.5387L32.0027 61.1688L22.9184 64.5192C18.8674 65.5501 15.7389 68.8584 14.9391 72.9635L13 82.9197L15.0076 83.3114L16.9467 73.3552C17.5981 70.0084 20.1587 67.313 23.4676 66.4911L23.9999 66.2949L28.78 75.1374L28.7807 94.5H30.8262V74.6208L25.9404 65.5815L30.3374 63.9627L38.4186 75.2052H62.5348L70.5076 64.1126L74.9246 65.745L70.1273 74.6211V94H72.1727L72.1734 75.1383L76.8637 66.4606L76.9629 66.4912C80.2718 67.3131 82.8317 70.0079 83.4838 73.3553L85.4229 83.3116L87.4305 82.9199L85.4917 72.9634ZM59.4322 58.7201L50.8116 65.9345H49.6202L41.0423 58.7557L41.1394 58.7679L41.9349 52.5094C44.2393 54.7517 47.1038 56.0994 50.2159 56.0994C53.3864 56.0994 56.3016 54.7032 58.6275 52.3845L59.4322 58.7201ZM63.7051 41.655C63.8457 40.6491 63.932 39.6189 63.932 38.5622C63.932 37.4784 63.8492 36.4026 63.6973 35.3467C63.8321 35.2911 63.9562 35.2304 64.084 35.1712L64.079 35.1869C65.411 35.5843 66.3414 36.8999 66.3414 38.3861C66.3414 40.0492 65.1934 41.4169 63.7051 41.655ZM39.0994 20.4155V27.5513H41.1449V18.5569H40.9508C42.4284 17.3162 44.1535 16.3723 46.0655 15.7824V25.7151H48.111V14.0451H51.915V25.7143H53.9605V15.7367C55.7869 16.2975 57.4407 17.2093 58.8805 18.3872V27.5515H60.9259V20.4221C63.2546 23.2231 64.6509 26.9123 64.7207 30.9889V31.9199C64.7207 33.1692 60.8552 35.0291 50.2062 35.0291C39.3147 35.0291 35.2565 33.1221 35.2565 31.9199L35.2558 31.3064H35.2915C35.2922 27.0906 36.6965 23.2835 39.0994 20.4155ZM34.0475 38.3859C34.0475 36.944 34.9258 35.6706 36.1929 35.2331C36.3719 35.3095 36.5482 35.3872 36.7394 35.4572C36.5967 36.4803 36.4996 37.5156 36.4996 38.5621C36.4996 39.6209 36.586 40.6524 36.7272 41.6599C35.2183 41.4416 34.0475 40.0647 34.0475 38.3859ZM38.7199 36.038C42.2751 36.8828 46.8419 37.0754 50.2065 37.0754C54.1412 37.0754 58.4647 36.8307 61.7088 35.9967C61.8158 36.8421 61.8872 37.6968 61.8872 38.5615C61.8872 47.1043 56.6519 54.0541 50.2167 54.0541C43.7814 54.0548 38.5454 47.105 38.5454 38.5615C38.5454 37.7118 38.6165 36.8706 38.7199 36.038ZM61.4864 73.1603H39.4687L32.3314 63.2298L32.7659 63.07L39.1727 59.8595L48.877 67.9807H51.5546L61.2597 59.8595L67.5616 63.0236L68.5176 63.3767L61.4864 73.1603Z" fill="#798598"/>
<path d="M55.7896 30.5209L55.1375 28.5811C52.3871 29.5071 48.4146 29.5221 45.6293 28.6231L45 30.5687C46.5703 31.0774 48.411 31.3456 50.3209 31.3456C52.2944 31.3463 54.1849 31.0602 55.7895 30.5209L55.7896 30.5209Z" fill="#798598"/>
</svg>
