<svg width="23" height="24" viewBox="0 0 23 24" fill="none" xmlns="http://www.w3.org/2000/svg">
<path d="M7.81712 23C9.56161 23 11.3061 22.3823 12.6346 21.1483L21.2058 13.1741C21.3222 13.0663 21.3248 12.8885 21.2136 12.7757C21.1024 12.6641 20.9176 12.659 20.8026 12.7681L12.2313 20.7423C9.79674 23.0048 5.83598 23.0048 3.40145 20.7423C2.22805 19.6498 1.5821 18.1978 1.5821 16.6532C1.5821 15.1098 2.22827 13.6578 3.40145 12.5641L13.9509 2.75371C15.6579 1.16774 18.4348 1.16774 20.1419 2.75371C20.9637 3.51923 21.4161 4.5364 21.4161 5.61629C21.4161 6.69746 20.9637 7.71339 20.1432 8.47762L10.9107 17.0617C9.93247 17.9738 8.33918 17.9738 7.35966 17.0617C6.88936 16.6232 6.63086 16.042 6.63086 15.4243C6.63086 14.8067 6.89067 14.2266 7.35966 13.7895L14.6156 7.0422C14.732 6.9344 14.7359 6.75655 14.6247 6.64372C14.5135 6.53088 14.3288 6.52711 14.2137 6.63491L6.95772 13.3822C6.37235 13.9258 6.05064 14.6513 6.04937 15.4231C6.04937 16.1962 6.37105 16.9227 6.95772 17.4675C8.15942 18.5862 10.1146 18.585 11.3151 17.4675L20.5475 8.88348C21.4845 8.01165 22 6.85015 22 5.61505C22 4.37974 21.4845 3.21846 20.5475 2.34411C18.617 0.55132 15.4783 0.552609 13.5502 2.34411L2.99912 12.1545C1.70959 13.3546 1 14.9519 1 16.6506C1 18.3494 1.70937 19.9455 2.99912 21.1456C4.32781 22.3823 6.0723 23 7.81678 23L7.81712 23Z" fill="white" stroke="white" stroke-width="0.5"/>
</svg>
