<svg width="237" height="66" viewBox="0 0 237 66" fill="none" xmlns="http://www.w3.org/2000/svg">
<path d="M31.6933 25.5105L29.9897 22.5699L11.6925 54.2632C10.969 53.5397 10.2688 52.7696 9.61536 51.9527L28.286 19.6059L26.5589 16.6653L7.70162 49.3622C7.07149 48.4053 6.51137 47.4251 5.99793 46.4216L24.8786 13.7247L23.1749 10.7841L4.52762 43.0375C3.40738 39.8635 2.77725 36.4561 2.77725 32.9087C2.77725 20.8428 9.91876 10.4106 20.1876 5.60296L18.7873 3.17578C7.70162 8.47357 0 19.816 0 32.9087C0 43.3643 4.90103 52.6762 12.5093 58.7208L13.9096 56.2937L31.6933 25.5105Z" fill="white"/>
<path d="M32.9301 0C28.9159 0 25.0884 0.723486 21.541 2.03043L22.2412 3.24402L41.2385 36.151H44.6459L25.8586 3.61743C26.8621 3.38405 27.889 3.174 28.9392 3.03397L48.0533 36.1276H51.4607L32.2066 2.77725C32.44 2.77725 32.6967 2.75391 32.9301 2.75391C33.8636 2.75391 34.7738 2.80059 35.684 2.89394L54.868 36.1276H58.2754L39.4181 3.4774C52.931 6.4647 63.0598 18.5072 63.0598 32.9069C63.0598 34.0038 62.9898 35.0774 62.8964 36.1276H65.697C65.8137 35.0541 65.8604 33.9805 65.8604 32.9069C65.837 14.7498 51.0639 0 32.9301 0Z" fill="white"/>
<path d="M63.8534 39.0936H27.2824L25.5787 42.0342H61.6596C61.3329 43.0377 60.9595 44.0179 60.5394 44.9748H23.8516L22.1479 47.9154H59.0224C58.4389 48.9423 57.7855 49.9225 57.0853 50.8794H20.4443L18.7406 53.82H54.5648C49.0803 59.4912 41.402 63.0153 32.9302 63.0153C26.7923 63.0153 21.0744 61.1715 16.3134 57.9975L14.9131 60.4014C20.0942 63.8088 26.2788 65.7692 32.9069 65.7692C48.9403 65.7692 62.3364 54.2401 65.2304 39.0469H63.8534V39.0936Z" fill="white"/>
<path d="M79 13.6309H96.0836V18.3685H84.2511V23.6896H89.6422C91.3226 23.6896 92.8162 24.0164 94.1232 24.6465C95.4301 25.2766 96.4337 26.1635 97.1805 27.3304C97.904 28.474 98.2774 29.8276 98.2774 31.3913C98.2774 32.9549 97.904 34.3086 97.1805 35.4988C96.457 36.6891 95.4301 37.6226 94.1232 38.2761C92.8162 38.9295 91.3226 39.2563 89.6422 39.2563H79V13.6309ZM89.3622 34.7286C90.5291 34.7286 91.4393 34.4252 92.0694 33.8184C92.7229 33.2117 93.0496 32.3948 93.0496 31.3446C93.0496 30.3177 92.7229 29.4775 92.0694 28.8707C91.416 28.2639 90.5058 27.9605 89.3622 27.9605H84.2511V34.7053H89.3622V34.7286Z" fill="white"/>
<path d="M117.228 35.8955H106.749L105.302 39.2329H99.6777L111.113 13.1641H112.864L124.276 39.2329H118.652L117.228 35.8955ZM112 22.9428L108.593 31.6013H115.431L112 22.9428Z" fill="white"/>
<path d="M127.777 13.6309H133.028V34.4953H141.454V13.6309H146.681V34.4953H155.106V13.6309H160.334V39.2329H127.777V13.6309Z" fill="white"/>
<path d="M166.191 13.6309H171.443V23.4329H182.762V13.6309H188.013V39.2329H182.762V28.1706H171.443V39.2329H166.191V13.6309Z" fill="white"/>
<path d="M193.871 13.6309H210.325V18.3685H199.099V39.2329H193.871V13.6309Z" fill="white"/>
<path d="M218.797 37.9494C216.72 36.7825 215.062 35.1955 213.872 33.165C212.659 31.1346 212.075 28.8941 212.075 26.4436C212.075 23.9931 212.682 21.7526 213.896 19.7222C215.109 17.6918 216.766 16.1048 218.843 14.9379C220.92 13.771 223.231 13.1875 225.728 13.1875C228.155 13.1875 230.372 13.7476 232.333 14.8679C234.317 15.9881 235.88 17.5518 237 19.5355L233.033 22.3361C231.213 19.4655 228.785 18.0185 225.705 18.0185C224.118 18.0185 222.717 18.3919 221.457 19.1154C220.197 19.8389 219.217 20.8424 218.517 22.1261C217.816 23.4097 217.443 24.8566 217.443 26.4903C217.443 28.124 217.793 29.571 218.517 30.8312C219.217 32.0915 220.22 33.095 221.457 33.7952C222.717 34.4953 224.118 34.8687 225.705 34.8687C228.785 34.8687 231.236 33.4451 233.033 30.5512L237 33.3517C235.88 35.3355 234.34 36.8992 232.333 38.0194C230.349 39.1396 228.109 39.6998 225.658 39.6998C223.184 39.6998 220.874 39.1163 218.797 37.9494Z" fill="white"/>
<path d="M80.0742 44.9258H84.6485V45.7426H80.9844V48.0764H82.6881C83.2015 48.0764 83.6683 48.1698 84.0651 48.3798C84.4618 48.5665 84.7652 48.8466 84.9519 49.1967C85.162 49.5468 85.2553 49.9202 85.2553 50.3636C85.2553 50.807 85.162 51.2038 84.9519 51.5538C84.7419 51.9039 84.4385 52.184 84.0651 52.3707C83.6683 52.5574 83.2249 52.6741 82.6881 52.6741H80.0742V44.9258ZM82.6881 51.8339C83.2015 51.8339 83.6216 51.6939 83.9017 51.4138C84.1818 51.1338 84.3218 50.7837 84.3218 50.3636C84.3218 49.9435 84.1818 49.5934 83.9017 49.3134C83.6216 49.0333 83.2015 48.8933 82.6881 48.8933H81.0077V51.8339H82.6881Z" fill="white"/>
<path d="M90.4363 47.4212C90.8331 47.8179 91.0431 48.4014 91.0431 49.1482V52.6723H90.203V51.9254C89.9929 52.2055 89.7129 52.4155 89.3861 52.5789C89.0594 52.7189 88.686 52.8123 88.2659 52.8123C87.6824 52.8123 87.1923 52.6723 86.8189 52.3689C86.4455 52.0888 86.2588 51.692 86.2588 51.2019C86.2588 50.7118 86.4455 50.3384 86.8189 50.035C87.1923 49.755 87.6824 49.5916 88.3126 49.5916H90.1096V49.1015C90.1096 48.6347 89.9929 48.2847 89.7362 48.0279C89.4795 47.7712 89.1527 47.6545 88.7326 47.6545C88.3826 47.6545 88.0792 47.7245 87.8225 47.8879C87.5657 48.0513 87.309 48.2613 87.0756 48.5647L86.4688 48.0746C86.7256 47.6545 87.0523 47.3278 87.4724 47.1411C87.8691 46.931 88.3126 46.8377 88.8027 46.8377C89.5028 46.8144 90.0396 47.0244 90.4363 47.4212ZM89.2694 51.8321C89.5262 51.6921 89.7595 51.5053 89.8996 51.272C90.0629 51.0386 90.1329 50.7585 90.1329 50.4785V50.3384H88.4293C88.0325 50.3384 87.7291 50.4084 87.5191 50.5485C87.309 50.6885 87.1923 50.8752 87.1923 51.1553C87.1923 51.4353 87.309 51.6687 87.5424 51.8321C87.7758 51.9955 88.0558 52.0655 88.3826 52.0655C88.7093 52.0421 89.0127 51.9721 89.2694 51.8321Z" fill="white"/>
<path d="M92.957 46.9551H93.8672V51.8561H96.2477V46.9551H97.1579V51.8561H99.5618V46.9551H100.472V52.673H92.9804V46.9551H92.957Z" fill="white"/>
<path d="M102.525 44.9258H103.436V48.1231H107.776V44.9258H108.687V52.6507H107.776V48.9166H103.436V52.6507H102.525V44.9258Z" fill="white"/>
<path d="M115.735 50.0837H111.23C111.277 50.6438 111.51 51.1105 111.907 51.4373C112.304 51.7874 112.771 51.9507 113.331 51.9507C113.984 51.9507 114.568 51.694 115.081 51.1806L115.618 51.7874C115.315 52.0908 114.988 52.3475 114.591 52.5108C114.194 52.6975 113.774 52.7676 113.331 52.7676C112.771 52.7676 112.257 52.6275 111.791 52.3708C111.324 52.1141 110.974 51.7407 110.694 51.2973C110.437 50.8538 110.297 50.3404 110.297 49.7803C110.297 49.2435 110.437 48.73 110.694 48.2633C110.95 47.7965 111.3 47.4464 111.744 47.1897C112.187 46.933 112.677 46.793 113.214 46.793C113.704 46.793 114.148 46.9097 114.544 47.1197C114.941 47.3297 115.245 47.6331 115.478 48.0299C115.711 48.4266 115.828 48.8701 115.828 49.3602C115.805 49.6169 115.781 49.8503 115.735 50.0837ZM113.167 47.6331C112.701 47.6331 112.281 47.7732 111.931 48.0766C111.58 48.38 111.347 48.7767 111.254 49.2668H114.871C114.871 48.7534 114.708 48.3566 114.381 48.0766C114.054 47.7965 113.634 47.6331 113.167 47.6331Z" fill="white"/>
<path d="M124.324 49.8263C124.324 50.4097 124.184 50.9232 123.904 51.3666C123.624 51.81 123.251 52.1601 122.76 52.3935C122.27 52.6268 121.71 52.7669 121.103 52.7902V54.774H120.193V52.7902C119.563 52.7669 119.003 52.6268 118.513 52.3935C118.023 52.1367 117.649 51.81 117.369 51.3666C117.089 50.9232 116.949 50.4097 116.949 49.8263C116.949 49.2428 117.089 48.7294 117.369 48.2859C117.649 47.8425 118.023 47.5158 118.513 47.259C119.003 47.0023 119.563 46.8856 120.17 46.8623V43.875H121.08V46.8623C121.71 46.8856 122.27 47.0257 122.76 47.259C123.251 47.5158 123.624 47.8425 123.904 48.2859C124.184 48.7294 124.324 49.2428 124.324 49.8263ZM117.883 49.8263C117.883 50.4797 118.093 50.9932 118.513 51.3899C118.933 51.7633 119.493 51.9734 120.193 51.9967V47.6558C119.493 47.6791 118.91 47.8892 118.513 48.2859C118.093 48.636 117.883 49.1728 117.883 49.8263ZM122.76 51.3666C123.181 50.9932 123.391 50.4564 123.391 49.8029C123.391 49.1494 123.181 48.636 122.76 48.2393C122.34 47.8658 121.78 47.6558 121.08 47.6325V51.9734C121.78 51.95 122.364 51.74 122.76 51.3666Z" fill="white"/>
<path d="M126.984 47.7504H125.047V46.9336H129.785V47.7504H127.871V52.6515H126.984V47.7504Z" fill="white"/>
<path d="M136.063 50.0837H131.559C131.605 50.6438 131.839 51.1105 132.235 51.4373C132.632 51.7874 133.099 51.9507 133.659 51.9507C134.312 51.9507 134.896 51.694 135.409 51.1806L135.946 51.7874C135.643 52.0908 135.316 52.3475 134.919 52.5108C134.522 52.6975 134.102 52.7676 133.659 52.7676C133.099 52.7676 132.585 52.6275 132.119 52.3708C131.652 52.1141 131.302 51.7407 131.022 51.2973C130.765 50.8538 130.625 50.3404 130.625 49.7803C130.625 49.2435 130.765 48.73 131.022 48.2633C131.278 47.7965 131.629 47.4464 132.072 47.1897C132.515 46.933 133.006 46.793 133.542 46.793C134.032 46.793 134.476 46.9097 134.873 47.1197C135.269 47.3297 135.573 47.6331 135.806 48.0299C136.039 48.4266 136.156 48.8701 136.156 49.3602C136.133 49.6169 136.109 49.8503 136.063 50.0837ZM133.519 47.6331C133.052 47.6331 132.632 47.7732 132.282 48.0766C131.932 48.38 131.699 48.7767 131.605 49.2668H135.223C135.223 48.7534 135.059 48.3566 134.733 48.0766C134.382 47.7965 133.986 47.6331 133.519 47.6331Z" fill="white"/>
<path d="M137.789 44.9258H142.363V45.7426H138.699V52.6507H137.789V44.9258Z" fill="white"/>
<path d="M146.285 47.4212C146.682 47.8179 146.892 48.4014 146.892 49.1482V52.6723H146.052V51.9254C145.842 52.2055 145.561 52.4155 145.235 52.5789C144.908 52.7189 144.535 52.8123 144.115 52.8123C143.531 52.8123 143.041 52.6723 142.668 52.3689C142.294 52.0888 142.107 51.692 142.107 51.2019C142.107 50.7118 142.294 50.3384 142.668 50.035C143.041 49.7316 143.531 49.5916 144.161 49.5916H145.958V49.1015C145.958 48.6347 145.842 48.2847 145.585 48.0279C145.328 47.7712 145.001 47.6545 144.581 47.6545C144.231 47.6545 143.928 47.7245 143.671 47.8879C143.414 48.0513 143.158 48.2613 142.924 48.5647L142.317 48.0746C142.574 47.6545 142.901 47.3278 143.321 47.1411C143.718 46.931 144.161 46.8377 144.651 46.8377C145.351 46.8144 145.888 47.0244 146.285 47.4212ZM145.118 51.8321C145.375 51.6921 145.585 51.5053 145.748 51.272C145.912 51.0386 145.982 50.7585 145.982 50.4785V50.3384H144.278C143.881 50.3384 143.578 50.4084 143.368 50.5485C143.158 50.6885 143.041 50.8752 143.041 51.1553C143.041 51.4353 143.158 51.6687 143.391 51.8321C143.624 51.9955 143.904 52.0655 144.231 52.0655C144.558 52.0421 144.861 51.9721 145.118 51.8321Z" fill="white"/>
<path d="M152.446 50.1771C152.609 50.4338 152.702 50.7139 152.702 51.0173C152.702 51.5541 152.516 51.9975 152.119 52.3009C151.722 52.6276 151.209 52.791 150.555 52.791C150.088 52.791 149.668 52.6976 149.295 52.5109C148.921 52.3242 148.618 52.0442 148.361 51.6941L148.968 51.1573C149.155 51.414 149.388 51.6241 149.645 51.7641C149.902 51.9041 150.205 51.9742 150.555 51.9742C150.952 51.9742 151.255 51.8808 151.465 51.6941C151.675 51.5074 151.792 51.274 151.792 50.9706C151.792 50.6906 151.675 50.4805 151.465 50.2938C151.255 50.1304 150.952 50.0371 150.555 50.0371H149.925V49.2436H150.532C150.859 49.2436 151.115 49.1736 151.279 49.0335C151.442 48.8935 151.535 48.7068 151.535 48.4501C151.535 48.2167 151.442 48.0067 151.279 47.8666C151.115 47.7266 150.859 47.6566 150.532 47.6566C150.205 47.6566 149.948 47.7266 149.715 47.8433C149.482 47.96 149.295 48.1467 149.108 48.3567L148.501 47.8199C148.711 47.5166 149.015 47.2832 149.342 47.0965C149.692 46.9098 150.088 46.8164 150.555 46.8164C151.115 46.8164 151.582 46.9564 151.909 47.2365C152.259 47.5166 152.422 47.89 152.422 48.3801C152.422 48.6368 152.375 48.8702 152.259 49.0802C152.142 49.2903 151.979 49.477 151.745 49.617C152.025 49.7337 152.282 49.9204 152.446 50.1771Z" fill="white"/>
<path d="M155.853 52.2533C155.246 51.9032 154.756 51.4131 154.382 50.8063C154.032 50.1995 153.846 49.5227 153.846 48.7759C153.846 48.0291 154.032 47.3523 154.382 46.7455C154.733 46.1387 155.223 45.6486 155.853 45.2985C156.46 44.9484 157.136 44.7617 157.883 44.7617C158.56 44.7617 159.19 44.9017 159.75 45.2051C160.31 45.5085 160.754 45.9053 161.081 46.4187L160.404 46.9555C160.1 46.5354 159.75 46.1854 159.33 45.952C158.91 45.7186 158.42 45.6019 157.883 45.6019C157.3 45.6019 156.786 45.7419 156.32 46.022C155.853 46.302 155.479 46.6755 155.223 47.1422C154.943 47.6323 154.826 48.1691 154.826 48.7526C154.826 49.336 154.966 49.8728 155.223 50.3629C155.503 50.853 155.853 51.2264 156.32 51.4831C156.786 51.7632 157.323 51.9032 157.883 51.9032C158.42 51.9032 158.887 51.7865 159.33 51.5531C159.75 51.3198 160.124 50.9697 160.404 50.5496L161.081 51.0864C160.754 51.5998 160.31 51.9966 159.75 52.3C159.19 52.6034 158.56 52.7434 157.86 52.7434C157.16 52.7901 156.483 52.6034 155.853 52.2533Z" fill="white"/>
<path d="M163.789 47.7504H161.875V46.9336H166.589V47.7504H164.676V52.6515H163.789V47.7504Z" fill="white"/>
<path d="M172.284 47.2132C172.704 47.4699 173.054 47.8433 173.287 48.2867C173.521 48.7301 173.661 49.2436 173.661 49.8037C173.661 50.3638 173.544 50.8539 173.287 51.3207C173.031 51.7875 172.704 52.1375 172.284 52.3942C171.864 52.651 171.374 52.791 170.837 52.791C170.417 52.791 170.02 52.6976 169.647 52.5343C169.273 52.3709 168.97 52.1375 168.736 51.8341V54.7748H167.826V46.9564H168.666V47.8666C168.876 47.5399 169.18 47.2832 169.577 47.0965C169.973 46.9098 170.37 46.8164 170.813 46.8164C171.374 46.8164 171.864 46.9564 172.284 47.2132ZM171.747 51.6708C172.05 51.4841 172.307 51.2273 172.47 50.9006C172.657 50.5739 172.727 50.2005 172.727 49.8037C172.727 49.4069 172.634 49.0335 172.47 48.7068C172.307 48.3801 172.05 48.1233 171.747 47.9366C171.444 47.7499 171.094 47.6566 170.72 47.6566C170.37 47.6566 170.043 47.7266 169.763 47.89C169.46 48.0533 169.226 48.2867 169.04 48.6135C168.853 48.9402 168.76 49.3369 168.76 49.8037C168.76 50.2705 168.853 50.6906 169.04 50.994C169.226 51.3207 169.46 51.5541 169.763 51.7174C170.067 51.8808 170.393 51.9508 170.743 51.9508C171.094 51.9508 171.444 51.8575 171.747 51.6708Z" fill="white"/>
<path d="M177.815 52.7677C177.278 52.7677 176.764 52.6276 176.321 52.3709C175.877 52.1142 175.504 51.7408 175.247 51.2974C174.991 50.8306 174.851 50.3405 174.851 49.8037C174.851 49.2669 174.991 48.7535 175.247 48.2867C175.504 47.8199 175.877 47.4699 176.321 47.2132C176.764 46.9564 177.278 46.8164 177.838 46.8164C178.375 46.8164 178.888 46.9564 179.355 47.2132C179.822 47.4699 180.172 47.8433 180.428 48.2867C180.685 48.7301 180.825 49.2436 180.825 49.7804C180.825 50.3171 180.685 50.8072 180.428 51.274C180.172 51.7408 179.798 52.0909 179.332 52.3476C178.865 52.651 178.351 52.7677 177.815 52.7677ZM177.815 51.9508C178.188 51.9508 178.538 51.8575 178.865 51.6708C179.191 51.4841 179.425 51.2273 179.612 50.9006C179.798 50.5739 179.892 50.2238 179.892 49.827C179.892 49.4303 179.798 49.0569 179.612 48.7301C179.425 48.4034 179.191 48.1467 178.865 47.96C178.538 47.7733 178.188 47.6799 177.815 47.6799C177.418 47.6799 177.068 47.7733 176.764 47.96C176.461 48.1467 176.204 48.4034 176.017 48.7301C175.831 49.0569 175.737 49.4303 175.737 49.827C175.737 50.2238 175.831 50.5972 176.017 50.9006C176.204 51.2273 176.438 51.4841 176.764 51.6708C177.068 51.8575 177.418 51.9508 177.815 51.9508Z" fill="white"/>
<path d="M187.103 46.815V52.6496H186.193V48.6121L182.715 52.7663H182.389V46.9317H183.299V50.9692L186.776 46.7917H187.103V46.815ZM183.579 45.4381C183.252 45.088 183.089 44.6446 183.089 44.1078V43.7344H183.859V44.0844C183.859 44.4579 183.952 44.7613 184.116 44.9713C184.302 45.1813 184.536 45.2747 184.863 45.2747C185.189 45.2747 185.446 45.1813 185.609 44.9713C185.796 44.7613 185.866 44.4579 185.866 44.0844V43.7344H186.636V44.1078C186.636 44.6679 186.473 45.1113 186.146 45.4381C185.819 45.7881 185.399 45.9515 184.863 45.9515C184.349 45.9515 183.906 45.7648 183.579 45.4381Z" fill="white"/>
</svg>
