<svg width="158" height="44" viewBox="0 0 158 44" fill="none" xmlns="http://www.w3.org/2000/svg">
<path d="M21.1289 17.006L19.9931 15.0456L7.79498 36.1745C7.31265 35.6922 6.84589 35.1787 6.41024 34.6342L18.8573 13.0696L17.706 11.1092L5.13442 32.9072C4.71433 32.2692 4.34092 31.6158 3.99862 30.9467L16.5857 9.14881L15.4499 7.18839L3.01841 28.6907C2.27159 26.5747 1.8515 24.3031 1.8515 21.9382C1.8515 13.8943 6.61251 6.93945 13.4584 3.73433L12.5249 2.11621C5.13442 5.64807 0 13.2097 0 21.9382C0 28.9085 3.26736 35.1165 8.33954 39.1462L9.27307 37.5281L21.1289 17.006Z" fill="white"/>
<path d="M21.9531 0C19.2769 0 16.7253 0.482324 14.3604 1.35362L14.8271 2.16268L27.492 24.1006H29.7636L17.2387 2.41162C17.9078 2.25603 18.5924 2.116 19.2925 2.02265L32.0352 24.0851H34.3068L21.4707 1.8515C21.6263 1.8515 21.7975 1.83594 21.9531 1.83594C22.5754 1.83594 23.1822 1.86706 23.789 1.9293L36.5784 24.0851H38.85L26.2784 2.31827C35.287 4.3098 42.0395 12.3382 42.0395 21.938C42.0395 22.6692 41.9928 23.3849 41.9306 24.0851H43.7977C43.8755 23.3694 43.9066 22.6537 43.9066 21.938C43.891 9.83319 34.0423 0 21.9531 0Z" fill="white"/>
<path d="M42.5693 26.0614H18.1886L17.0528 28.0218H41.1067C40.8889 28.6908 40.64 29.3443 40.3599 29.9822H15.9014L14.7656 31.9426H39.3486C38.9596 32.6272 38.524 33.2807 38.0572 33.9186H13.6298L12.494 35.879H36.3768C32.7205 39.6598 27.6017 42.0092 21.9538 42.0092C17.8618 42.0092 14.0499 40.7801 10.8759 38.664L9.94238 40.2666C13.3964 42.5382 17.5195 43.8451 21.9382 43.8451C32.6272 43.8451 41.5579 36.1591 43.4872 26.0303H42.5693V26.0614Z" fill="white"/>
<path d="M52.666 9.08691H64.0551V12.2454H56.1668V15.7928H59.7608C60.8811 15.7928 61.8768 16.0106 62.7481 16.4307C63.6194 16.8508 64.2885 17.442 64.7864 18.22C65.2687 18.9823 65.5176 19.8847 65.5176 20.9272C65.5176 21.9696 65.2687 22.872 64.7864 23.6655C64.304 24.459 63.6194 25.0814 62.7481 25.517C61.8768 25.9527 60.8811 26.1705 59.7608 26.1705H52.666V9.08691ZM59.5741 23.1521C60.3521 23.1521 60.9589 22.9498 61.379 22.5453C61.8146 22.1408 62.0324 21.5962 62.0324 20.8961C62.0324 20.2115 61.8146 19.6514 61.379 19.2468C60.9433 18.8423 60.3365 18.64 59.5741 18.64H56.1668V23.1365H59.5741V23.1521Z" fill="white"/>
<path d="M78.1514 23.9297H71.1655L70.2009 26.1546H66.4512L74.075 8.77539H75.2419L82.8502 26.1546H79.1005L78.1514 23.9297ZM74.6662 15.2945L72.3946 21.0669H76.9534L74.6662 15.2945Z" fill="white"/>
<path d="M85.1836 9.08691H88.6843V22.9965H94.3011V9.08691H97.7863V22.9965H103.403V9.08691H106.888V26.155H85.1836V9.08691Z" fill="white"/>
<path d="M110.794 9.08691H114.295V15.6216H121.841V9.08691H125.341V26.155H121.841V18.7801H114.295V26.155H110.794V9.08691Z" fill="white"/>
<path d="M129.246 9.08691H140.215V12.2454H132.731V26.155H129.246V9.08691Z" fill="white"/>
<path d="M145.864 25.2989C144.479 24.521 143.374 23.463 142.581 22.1094C141.772 20.7558 141.383 19.2621 141.383 17.6284C141.383 15.9948 141.787 14.5011 142.596 13.1475C143.405 11.7939 144.51 10.7359 145.895 9.95793C147.28 9.17999 148.82 8.79102 150.485 8.79102C152.103 8.79102 153.581 9.16443 154.888 9.91125C156.21 10.6581 157.253 11.7005 158 13.023L155.355 14.8901C154.141 12.9763 152.523 12.0117 150.469 12.0117C149.411 12.0117 148.478 12.2606 147.637 12.743C146.797 13.2253 146.144 13.8943 145.677 14.7501C145.21 15.6058 144.961 16.5704 144.961 17.6596C144.961 18.7487 145.195 19.7133 145.677 20.5535C146.144 21.3937 146.813 22.0627 147.637 22.5295C148.478 22.9962 149.411 23.2452 150.469 23.2452C152.523 23.2452 154.157 22.2961 155.355 20.3668L158 22.2339C157.253 23.5564 156.226 24.5988 154.888 25.3456C153.565 26.0924 152.072 26.4659 150.438 26.4659C148.789 26.4659 147.248 26.0769 145.864 25.2989Z" fill="white"/>
<path d="M53.3828 29.9512H56.4323V30.4957H53.9896V32.0516H55.1254C55.4677 32.0516 55.7789 32.1139 56.0434 32.2539C56.3079 32.3784 56.5101 32.5651 56.6346 32.7984C56.7746 33.0318 56.8369 33.2808 56.8369 33.5764C56.8369 33.872 56.7746 34.1365 56.6346 34.3699C56.4946 34.6033 56.2923 34.79 56.0434 34.9144C55.7789 35.0389 55.4833 35.1167 55.1254 35.1167H53.3828V29.9512ZM55.1254 34.5566C55.4677 34.5566 55.7478 34.4632 55.9345 34.2765C56.1212 34.0898 56.2145 33.8564 56.2145 33.5764C56.2145 33.2963 56.1212 33.0629 55.9345 32.8762C55.7478 32.6895 55.4677 32.5962 55.1254 32.5962H54.0052V34.5566H55.1254Z" fill="white"/>
<path d="M60.2909 31.6157C60.5554 31.8802 60.6954 32.2692 60.6954 32.7671V35.1165H60.1353V34.6186C59.9953 34.8053 59.8086 34.9453 59.5907 35.0542C59.3729 35.1476 59.124 35.2098 58.8439 35.2098C58.4549 35.2098 58.1282 35.1165 57.8793 34.9142C57.6303 34.7275 57.5059 34.463 57.5059 34.1363C57.5059 33.8095 57.6303 33.5606 57.8793 33.3583C58.1282 33.1716 58.455 33.0627 58.875 33.0627H60.0731V32.736C60.0731 32.4248 59.9953 32.1914 59.8241 32.0203C59.653 31.8491 59.4352 31.7713 59.1551 31.7713C58.9217 31.7713 58.7195 31.818 58.5483 31.9269C58.3772 32.0358 58.206 32.1758 58.0504 32.3781L57.6459 32.0514C57.817 31.7713 58.0349 31.5535 58.3149 31.429C58.5794 31.289 58.875 31.2268 59.2018 31.2268C59.6685 31.2112 60.0264 31.3512 60.2909 31.6157ZM59.513 34.5563C59.6841 34.463 59.8397 34.3385 59.933 34.1829C60.042 34.0273 60.0886 33.8406 60.0886 33.6539V33.5606H58.9528C58.6883 33.5606 58.4861 33.6073 58.346 33.7006C58.206 33.794 58.1282 33.9184 58.1282 34.1051C58.1282 34.2918 58.206 34.4474 58.3616 34.5563C58.5172 34.6653 58.7039 34.7119 58.9217 34.7119C59.1395 34.6964 59.3418 34.6497 59.513 34.5563Z" fill="white"/>
<path d="M61.9707 31.3047H62.5775V34.572H64.1645V31.3047H64.7713V34.572H66.3739V31.3047H66.9807V35.1166H61.9863V31.3047H61.9707Z" fill="white"/>
<path d="M68.3506 29.9512H68.9574V32.0827H71.8513V29.9512H72.4581V35.1011H71.8513V32.6117H68.9574V35.1011H68.3506V29.9512Z" fill="white"/>
<path d="M77.1565 33.3891H74.1536C74.1847 33.7625 74.3403 34.0737 74.6048 34.2915C74.8693 34.5249 75.1805 34.6338 75.5539 34.6338C75.9895 34.6338 76.3785 34.4627 76.7208 34.1204L77.0787 34.5249C76.8764 34.7272 76.6586 34.8983 76.3941 35.0072C76.1296 35.1317 75.8495 35.1784 75.5539 35.1784C75.1805 35.1784 74.8382 35.085 74.527 34.9139C74.2158 34.7427 73.9825 34.4938 73.7958 34.1982C73.6246 33.9026 73.5312 33.5603 73.5312 33.1868C73.5312 32.829 73.6246 32.4867 73.7958 32.1755C73.9669 31.8643 74.2003 31.631 74.4959 31.4598C74.7915 31.2887 75.1183 31.1953 75.4761 31.1953C75.8028 31.1953 76.0985 31.2731 76.363 31.4131C76.6275 31.5532 76.8297 31.7554 76.9853 32.0199C77.1409 32.2844 77.2187 32.58 77.2187 32.9068C77.2031 33.0779 77.1876 33.2335 77.1565 33.3891ZM75.445 31.7554C75.1338 31.7554 74.8538 31.8488 74.6204 32.051C74.387 32.2533 74.2314 32.5178 74.1692 32.8446H76.5808C76.5808 32.5023 76.4719 32.2378 76.254 32.051C76.0362 31.8643 75.7562 31.7554 75.445 31.7554Z" fill="white"/>
<path d="M82.8824 33.2175C82.8824 33.6065 82.7891 33.9488 82.6024 34.2444C82.4156 34.54 82.1667 34.7734 81.84 34.929C81.5132 35.0846 81.1398 35.1779 80.7353 35.1935V36.516H80.1285V35.1935C79.7084 35.1779 79.335 35.0846 79.0083 34.929C78.6815 34.7578 78.4326 34.54 78.2459 34.2444C78.0592 33.9488 77.9658 33.6065 77.9658 33.2175C77.9658 32.8285 78.0592 32.4862 78.2459 32.1906C78.4326 31.895 78.6815 31.6772 79.0083 31.506C79.335 31.3349 79.7084 31.2571 80.1129 31.2415V29.25H80.7197V31.2415C81.1398 31.2571 81.5132 31.3504 81.84 31.506C82.1667 31.6772 82.4156 31.895 82.6024 32.1906C82.7891 32.4862 82.8824 32.8285 82.8824 33.2175ZM78.5882 33.2175C78.5882 33.6532 78.7282 33.9954 79.0083 34.2599C79.2883 34.5089 79.6617 34.6489 80.1285 34.6645V31.7705C79.6617 31.7861 79.2728 31.9261 79.0083 32.1906C78.7282 32.424 78.5882 32.7819 78.5882 33.2175ZM81.84 34.2444C82.12 33.9954 82.2601 33.6376 82.2601 33.2019C82.2601 32.7663 82.12 32.424 81.84 32.1595C81.5599 31.9106 81.1865 31.7705 80.7197 31.755V34.6489C81.1865 34.6334 81.5755 34.4933 81.84 34.2444Z" fill="white"/>
<path d="M84.6566 31.8336H83.3652V31.2891H86.5237V31.8336H85.2479V35.101H84.6566V31.8336Z" fill="white"/>
<path d="M90.7092 33.3891H87.7063C87.7375 33.7625 87.893 34.0737 88.1575 34.2915C88.422 34.5249 88.7332 34.6338 89.1066 34.6338C89.5423 34.6338 89.9313 34.4627 90.2735 34.1204L90.6314 34.5249C90.4291 34.7272 90.2113 34.8983 89.9468 35.0072C89.6823 35.1317 89.4023 35.1784 89.1066 35.1784C88.7332 35.1784 88.3909 35.085 88.0797 34.9139C87.7686 34.7427 87.5352 34.4938 87.3485 34.1982C87.1773 33.9026 87.084 33.5603 87.084 33.1868C87.084 32.829 87.1773 32.4867 87.3485 32.1755C87.5196 31.8643 87.753 31.631 88.0486 31.4598C88.3442 31.2887 88.671 31.1953 89.0288 31.1953C89.3556 31.1953 89.6512 31.2731 89.9157 31.4131C90.1802 31.5532 90.3825 31.7554 90.538 32.0199C90.6936 32.2844 90.7714 32.58 90.7714 32.9068C90.7559 33.0779 90.7403 33.2335 90.7092 33.3891ZM89.0133 31.7554C88.7021 31.7554 88.422 31.8488 88.1887 32.051C87.9553 32.2533 87.7997 32.5178 87.7374 32.8446H90.1491C90.1491 32.5023 90.0402 32.2378 89.8223 32.051C89.589 31.8643 89.3245 31.7554 89.0133 31.7554Z" fill="white"/>
<path d="M91.8594 29.9512H94.9089V30.4957H92.4662V35.1011H91.8594V29.9512Z" fill="white"/>
<path d="M97.5233 31.6157C97.7878 31.8802 97.9278 32.2692 97.9278 32.7671V35.1165H97.3677V34.6186C97.2277 34.8053 97.041 34.9453 96.8232 35.0542C96.6053 35.1476 96.3564 35.2098 96.0763 35.2098C95.6874 35.2098 95.3606 35.1165 95.1117 34.9142C94.8628 34.7275 94.7383 34.463 94.7383 34.1363C94.7383 33.8095 94.8628 33.5606 95.1117 33.3583C95.3606 33.1561 95.6874 33.0627 96.1075 33.0627H97.3055V32.736C97.3055 32.4248 97.2277 32.1914 97.0566 32.0203C96.8854 31.8491 96.6676 31.7713 96.3875 31.7713C96.1541 31.7713 95.9519 31.818 95.7807 31.9269C95.6096 32.0358 95.4384 32.1758 95.2828 32.3781L94.8783 32.0514C95.0495 31.7713 95.2673 31.5535 95.5473 31.429C95.8118 31.289 96.1075 31.2268 96.4342 31.2268C96.901 31.2112 97.2588 31.3512 97.5233 31.6157ZM96.7454 34.5563C96.9165 34.463 97.0566 34.3385 97.1655 34.1829C97.2744 34.0273 97.3211 33.8406 97.3211 33.6539V33.5606H96.1853C95.9208 33.5606 95.7185 33.6073 95.5785 33.7006C95.4384 33.794 95.3606 33.9184 95.3606 34.1051C95.3606 34.2918 95.4384 34.4474 95.594 34.5563C95.7496 34.6653 95.9363 34.7119 96.1541 34.7119C96.372 34.6964 96.5742 34.6497 96.7454 34.5563Z" fill="white"/>
<path d="M101.631 33.4514C101.74 33.6226 101.802 33.8093 101.802 34.0115C101.802 34.3694 101.678 34.665 101.413 34.8673C101.149 35.0851 100.806 35.194 100.371 35.194C100.06 35.194 99.7795 35.1318 99.5306 35.0073C99.2816 34.8828 99.0794 34.6961 98.9082 34.4627L99.3127 34.1049C99.4372 34.276 99.5928 34.4161 99.7639 34.5094C99.9351 34.6028 100.137 34.6494 100.371 34.6494C100.635 34.6494 100.837 34.5872 100.978 34.4627C101.118 34.3383 101.195 34.1827 101.195 33.9804C101.195 33.7937 101.118 33.6537 100.978 33.5292C100.837 33.4203 100.635 33.3581 100.371 33.3581H99.9506V32.8291H100.355C100.573 32.8291 100.744 32.7824 100.853 32.689C100.962 32.5957 101.024 32.4712 101.024 32.3001C101.024 32.1445 100.962 32.0044 100.853 31.9111C100.744 31.8177 100.573 31.7711 100.355 31.7711C100.137 31.7711 99.9662 31.8177 99.8106 31.8955C99.655 31.9733 99.5305 32.0978 99.4061 32.2378L99.0016 31.88C99.1416 31.6777 99.3438 31.5221 99.5617 31.3976C99.795 31.2732 100.06 31.2109 100.371 31.2109C100.744 31.2109 101.055 31.3043 101.273 31.491C101.507 31.6777 101.615 31.9266 101.615 32.2534C101.615 32.4245 101.584 32.5801 101.507 32.7201C101.429 32.8602 101.32 32.9846 101.164 33.078C101.351 33.1558 101.522 33.2803 101.631 33.4514Z" fill="white"/>
<path d="M103.903 34.8362C103.498 34.6028 103.171 34.2761 102.922 33.8715C102.689 33.467 102.564 33.0158 102.564 32.5179C102.564 32.02 102.689 31.5688 102.922 31.1643C103.156 30.7598 103.482 30.433 103.903 30.1997C104.307 29.9663 104.758 29.8418 105.256 29.8418C105.707 29.8418 106.127 29.9351 106.501 30.1374C106.874 30.3397 107.17 30.6042 107.388 30.9465L106.936 31.3043C106.734 31.0243 106.501 30.7909 106.221 30.6353C105.941 30.4797 105.614 30.4019 105.256 30.4019C104.867 30.4019 104.525 30.4953 104.214 30.682C103.903 30.8687 103.654 31.1176 103.482 31.4288C103.296 31.7555 103.218 32.1134 103.218 32.5024C103.218 32.8913 103.311 33.2492 103.482 33.5759C103.669 33.9027 103.903 34.1516 104.214 34.3227C104.525 34.5094 104.883 34.6028 105.256 34.6028C105.614 34.6028 105.925 34.525 106.221 34.3694C106.501 34.2138 106.75 33.9804 106.936 33.7004L107.388 34.0582C107.17 34.4005 106.874 34.665 106.501 34.8673C106.127 35.0696 105.707 35.1629 105.241 35.1629C104.774 35.194 104.323 35.0696 103.903 34.8362Z" fill="white"/>
<path d="M109.192 31.8336H107.916V31.2891H111.059V31.8336H109.783V35.101H109.192V31.8336Z" fill="white"/>
<path d="M114.857 31.4754C115.137 31.6466 115.37 31.8955 115.526 32.1911C115.681 32.4868 115.774 32.8291 115.774 33.2025C115.774 33.5759 115.697 33.9026 115.526 34.2138C115.354 34.525 115.137 34.7584 114.857 34.9295C114.576 35.1006 114.25 35.194 113.892 35.194C113.612 35.194 113.347 35.1318 113.098 35.0229C112.849 34.9139 112.647 34.7584 112.492 34.5561V36.5165H111.885V31.3043H112.445V31.9111C112.585 31.6933 112.787 31.5221 113.052 31.3976C113.316 31.2732 113.581 31.2109 113.876 31.2109C114.25 31.2109 114.576 31.3043 114.857 31.4754ZM114.499 34.4472C114.701 34.3227 114.872 34.1516 114.981 33.9337C115.105 33.7159 115.152 33.467 115.152 33.2025C115.152 32.938 115.09 32.689 114.981 32.4712C114.872 32.2534 114.701 32.0822 114.499 31.9578C114.296 31.8333 114.063 31.7711 113.814 31.7711C113.581 31.7711 113.363 31.8177 113.176 31.9266C112.974 32.0356 112.818 32.1911 112.694 32.409C112.569 32.6268 112.507 32.8913 112.507 33.2025C112.507 33.5136 112.569 33.7937 112.694 33.996C112.818 34.2138 112.974 34.3694 113.176 34.4783C113.378 34.5872 113.596 34.6339 113.83 34.6339C114.063 34.6339 114.296 34.5716 114.499 34.4472Z" fill="white"/>
<path d="M118.543 35.1784C118.185 35.1784 117.843 35.0851 117.548 34.9139C117.252 34.7428 117.003 34.4939 116.832 34.1982C116.661 33.8871 116.567 33.5603 116.567 33.2025C116.567 32.8446 116.661 32.5023 116.832 32.1911C117.003 31.88 117.252 31.6466 117.548 31.4754C117.843 31.3043 118.186 31.2109 118.559 31.2109C118.917 31.2109 119.259 31.3043 119.57 31.4754C119.881 31.6466 120.115 31.8955 120.286 32.1911C120.457 32.4868 120.55 32.8291 120.55 33.1869C120.55 33.5448 120.457 33.8715 120.286 34.1827C120.115 34.4939 119.866 34.7272 119.555 34.8984C119.243 35.1006 118.901 35.1784 118.543 35.1784ZM118.543 34.6339C118.792 34.6339 119.026 34.5716 119.243 34.4472C119.461 34.3227 119.617 34.1516 119.741 33.9337C119.866 33.7159 119.928 33.4825 119.928 33.218C119.928 32.9535 119.866 32.7046 119.741 32.4868C119.617 32.2689 119.461 32.0978 119.243 31.9733C119.026 31.8488 118.792 31.7866 118.543 31.7866C118.279 31.7866 118.045 31.8488 117.843 31.9733C117.641 32.0978 117.47 32.2689 117.345 32.4868C117.221 32.7046 117.159 32.9535 117.159 33.218C117.159 33.4825 117.221 33.7315 117.345 33.9337C117.47 34.1516 117.625 34.3227 117.843 34.4472C118.045 34.5716 118.279 34.6339 118.543 34.6339Z" fill="white"/>
<path d="M124.736 31.211V35.1007H124.129V32.409L121.811 35.1785H121.593V31.2888H122.2V33.9805L124.518 31.1954H124.736V31.211ZM122.386 30.293C122.168 30.0596 122.06 29.764 122.06 29.4062V29.1572H122.573V29.3906C122.573 29.6396 122.635 29.8418 122.744 29.9818C122.869 30.1219 123.024 30.1841 123.242 30.1841C123.46 30.1841 123.631 30.1219 123.74 29.9818C123.864 29.8418 123.911 29.6396 123.911 29.3906V29.1572H124.424V29.4062C124.424 29.7796 124.316 30.0752 124.098 30.293C123.88 30.5264 123.6 30.6353 123.242 30.6353C122.9 30.6353 122.604 30.5108 122.386 30.293Z" fill="white"/>
</svg>
