<svg width="29" height="23" viewBox="0 0 29 23" fill="none" xmlns="http://www.w3.org/2000/svg">
<path d="M27.568 0C27.474 0 27.3801 2.84102e-06 27.2391 0.0465615L0.557951 10.1032C-0.193632 10.3826 -0.193636 11.4534 0.604921 11.6862L6.80549 13.7348L10.5164 21.1377C10.5634 21.2773 10.7043 21.3704 10.8922 21.3704C10.9862 21.3704 11.0801 21.3239 11.1271 21.2773L14.6032 18.3441L10.7043 15.4109L11.0331 19.2753L8.2147 13.502L23.1054 4.60932L10.7043 15.3644L20.381 22.6275C20.7098 22.8603 21.0856 23 21.4613 23C22.2129 23 22.9645 22.4878 23.1524 21.6963L28.3665 0.977735C28.5544 0.512148 28.1316 0 27.568 0Z" fill="#798598"/>
</svg>
