<svg width="34" height="20" viewBox="0 0 34 20" fill="none" xmlns="http://www.w3.org/2000/svg">
<path fill-rule="evenodd" clip-rule="evenodd" d="M32.9036 1.35427C33.1377 0.573623 32.9036 0 31.7895 0H28.1053C27.1685 0 26.7366 0.495525 26.5024 1.04195C26.5024 1.04195 24.6289 5.60867 21.9747 8.57505C21.1161 9.43373 20.7257 9.70694 20.2573 9.70694C20.0232 9.70694 19.6842 9.43373 19.6842 8.65315V1.35427C19.6842 0.417495 19.4123 0 18.6316 0H12.8421C12.2567 0 11.9046 0.434779 11.9046 0.846835C11.9046 1.73488 13.2316 1.93967 13.3684 4.43773V9.86313C13.3684 11.0526 13.1536 11.2683 12.6852 11.2683C11.4363 11.2683 8.39815 6.68117 6.59627 1.4323C6.24314 0.412106 5.88896 0 4.94738 0H1.26317C0.210537 0 0 0.495525 0 1.04195C0 2.01777 1.24903 6.8577 5.81569 13.2589C8.8601 17.6303 13.1495 20 17.0526 20C19.3945 20 19.6842 19.4737 19.6842 18.5671V15.2632C19.6842 14.2105 19.9061 14.0005 20.6477 14.0005C21.1941 14.0005 22.1309 14.2737 24.3167 16.3814C26.8147 18.8794 27.2265 20 28.6316 20H32.3158C33.3684 20 33.8947 19.4737 33.5911 18.435C33.2589 17.3998 32.0662 15.8979 30.4837 14.1175C29.6249 13.1027 28.3369 12.0099 27.9466 11.4633C27.4001 10.7609 27.5563 10.4485 27.9466 9.82408C27.9466 9.82408 32.4352 3.50096 32.9036 1.35427Z" fill="#798598"/>
</svg>
