<svg width="29" height="21" viewBox="0 0 29 21" fill="none" xmlns="http://www.w3.org/2000/svg">
<path d="M24.7144 20.78C24.7144 20.78 16.9055 20.998 14.2991 20.998C11.6926 20.998 3.8837 20.78 3.8837 20.78C1.86916 20.78 0.218068 19.1289 0.218068 17.1144C0.218068 17.1144 0 12.5245 0 10.998C0 9.46118 0.218068 4.88174 0.218068 4.88174C0.218068 2.86721 1.86916 1.21612 3.8837 1.21612C3.8837 1.21612 11.6926 0.998047 14.2991 0.998047C16.9055 0.998047 24.7144 1.21612 24.7144 1.21612C26.729 1.21612 28.3801 2.86721 28.3801 4.88174C28.3801 4.88174 28.5981 9.47157 28.5981 10.998C28.5981 12.5349 28.3801 17.1144 28.3801 17.1144C28.3801 19.1289 26.729 20.78 24.7144 20.78Z" fill="#798598"/>
<path fill-rule="evenodd" clip-rule="evenodd" d="M11.5576 15.4662V6.52539L18.785 11.001L11.5576 15.4662Z" fill="#18233D"/>
</svg>
